<svg id="SvgjsSvg1081" width="691" height="383.828125" xmlns="http://www.w3.org/2000/svg" version="1.1" xmlns:xlink="http://www.w3.org/1999/xlink" xmlns:svgjs="http://svgjs.com/svgjs"><defs id="SvgjsDefs1082"><marker id="SvgjsMarker1126" markerWidth="14" markerHeight="10" refX="10" refY="5" viewBox="0 0 14 10" orient="auto" markerUnits="userSpaceOnUse" stroke-dasharray="0,0"><path id="SvgjsPath1127" d="M0,0 L14,5 L0,10 L0,0" fill="#323232" stroke="#323232" stroke-width="1"></path></marker><marker id="SvgjsMarker1134" markerWidth="14" markerHeight="10" refX="10" refY="5" viewBox="0 0 14 10" orient="auto" markerUnits="userSpaceOnUse" stroke-dasharray="0,0"><path id="SvgjsPath1135" d="M0,0 L14,5 L0,10 L0,0" fill="#323232" stroke="#323232" stroke-width="1"></path></marker><marker id="SvgjsMarker1142" markerWidth="14" markerHeight="10" refX="4" refY="5" viewBox="0 0 14 10" orient="auto" markerUnits="userSpaceOnUse" stroke-dasharray="0,0"><path id="SvgjsPath1143" d="M14,0 L0,5 L14,10 L14,0" fill="#323232" stroke="#323232" stroke-width="1"></path></marker><marker id="SvgjsMarker1150" markerWidth="14" markerHeight="10" refX="4" refY="5" viewBox="0 0 14 10" orient="auto" markerUnits="userSpaceOnUse" stroke-dasharray="0,0"><path id="SvgjsPath1151" d="M14,0 L0,5 L14,10 L14,0" fill="#323232" stroke="#323232" stroke-width="1"></path></marker></defs><g id="SvgjsG1083" transform="translate(25.001121551321376,115.08779761904799)"><path id="SvgjsPath1084" d="M 0 0L 640.9415867820119 0L 0 0M 0 156.65476190476113L 640.9415867820119 156.65476190476113L 0 156.65476190476113Z" stroke="rgba(50,50,50,1)" stroke-width="2" fill-opacity="1" fill="#ffffff"></path><path id="SvgjsPath1085" d="M 0 0L 640.9415867820119 0L 640.9415867820119 156.65476190476113L 0 156.65476190476113L 0 0Z" stroke="none" fill="none"></path><g id="SvgjsG1086"><text id="SvgjsText1087" font-family="微软雅黑" text-anchor="middle" font-size="13px" width="621px" fill="#323232" font-weight="400" align="middle" lineHeight="125%" anchor="middle" family="微软雅黑" size="13px" weight="400" font-style="" opacity="1" y="68.70238095238057" transform="rotate(0)"></text></g></g><g id="SvgjsG1088" transform="translate(207.00112155132047,25)"><path id="SvgjsPath1089" d="M 0 4Q 0 0 4 0L 391.60825344867953 0Q 395.60825344867953 0 395.60825344867953 4L 395.60825344867953 35.98809523809524Q 395.60825344867953 39.98809523809524 391.60825344867953 39.98809523809524L 4 39.98809523809524Q 0 39.98809523809524 0 35.98809523809524Z" stroke="rgba(50,50,50,1)" stroke-width="2" fill-opacity="1" fill="#ffffff"></path><g id="SvgjsG1090"><text id="SvgjsText1091" font-family="微软雅黑" text-anchor="middle" font-size="15px" width="376px" fill="#323232" font-weight="400" align="middle" lineHeight="125%" anchor="middle" family="微软雅黑" size="15px" weight="400" font-style="" opacity="1" y="9.11904761904762" transform="rotate(0)"><tspan id="SvgjsTspan1092" dy="18" x="198"><tspan id="SvgjsTspan1093" style="text-decoration:;">用户缓冲区</tspan></tspan></text></g></g><g id="SvgjsG1094" transform="translate(207.00112155132035,169.0000000000001)"><path id="SvgjsPath1095" d="M 0 4Q 0 0 4 0L 391.60825344867953 0Q 395.60825344867953 0 395.60825344867953 4L 395.60825344867953 35.98809523809524Q 395.60825344867953 39.98809523809524 391.60825344867953 39.98809523809524L 4 39.98809523809524Q 0 39.98809523809524 0 35.98809523809524Z" stroke="rgba(50,50,50,1)" stroke-width="2" fill-opacity="1" fill="#ffffff"></path><g id="SvgjsG1096"><text id="SvgjsText1097" font-family="微软雅黑" text-anchor="middle" font-size="15px" width="376px" fill="#323232" font-weight="400" align="middle" lineHeight="125%" anchor="middle" family="微软雅黑" size="15px" weight="400" font-style="" opacity="1" y="9.11904761904762" transform="rotate(0)"><tspan id="SvgjsTspan1098" dy="18" x="198"><tspan id="SvgjsTspan1099" style="text-decoration:;">内核缓存</tspan></tspan></text></g></g><g id="SvgjsG1100" transform="translate(207.00112155132058,318.8363095238095)"><path id="SvgjsPath1101" d="M 0 4Q 0 0 4 0L 391.60825344867953 0Q 395.60825344867953 0 395.60825344867953 4L 395.60825344867953 35.98809523809524Q 395.60825344867953 39.98809523809524 391.60825344867953 39.98809523809524L 4 39.98809523809524Q 0 39.98809523809524 0 35.98809523809524Z" stroke="rgba(50,50,50,1)" stroke-width="2" fill-opacity="1" fill="#ffffff"></path><g id="SvgjsG1102"><text id="SvgjsText1103" font-family="微软雅黑" text-anchor="middle" font-size="15px" width="376px" fill="#323232" font-weight="400" align="middle" lineHeight="125%" anchor="middle" family="微软雅黑" size="15px" weight="400" font-style="" opacity="1" y="9.11904761904762" transform="rotate(0)"><tspan id="SvgjsTspan1104" dy="18" x="198"><tspan id="SvgjsTspan1105" style="text-decoration:;">磁盘I/O</tspan></tspan></text></g></g><g id="SvgjsG1106" transform="translate(32.33445488465384,28.005952380952408)"><path id="SvgjsPath1107" d="M 0 4Q 0 0 4 0L 113.60825344867953 0Q 117.60825344867953 0 117.60825344867953 4L 117.60825344867953 48.99404761904759Q 117.60825344867953 52.99404761904759 113.60825344867953 52.99404761904759L 4 52.99404761904759Q 0 52.99404761904759 0 48.99404761904759Z" stroke="rgba(255,255,255,1)" stroke-width="2" fill-opacity="1" fill="#ffffff"></path><g id="SvgjsG1108"><text id="SvgjsText1109" font-family="微软雅黑" text-anchor="middle" font-size="15px" width="98px" fill="#323232" font-weight="400" align="middle" lineHeight="125%" anchor="middle" family="微软雅黑" size="15px" weight="400" font-style="" opacity="1" y="15.622023809523796" transform="rotate(0)"><tspan id="SvgjsTspan1110" dy="18" x="59"><tspan id="SvgjsTspan1111" style="text-decoration:;">用户空间</tspan></tspan></text></g></g><g id="SvgjsG1112" transform="translate(25.001121551321376,305.8303571428571)"><path id="SvgjsPath1113" d="M 0 4Q 0 0 4 0L 113.60825344867953 0Q 117.60825344867953 0 117.60825344867953 4L 117.60825344867953 48.99404761904759Q 117.60825344867953 52.99404761904759 113.60825344867953 52.99404761904759L 4 52.99404761904759Q 0 52.99404761904759 0 48.99404761904759Z" stroke="rgba(255,255,255,1)" stroke-width="2" fill-opacity="1" fill="#ffffff"></path><g id="SvgjsG1114"><text id="SvgjsText1115" font-family="微软雅黑" text-anchor="middle" font-size="15px" width="98px" fill="#323232" font-weight="400" align="middle" lineHeight="125%" anchor="middle" family="微软雅黑" size="15px" weight="400" font-style="" opacity="1" y="15.622023809523796" transform="rotate(0)"><tspan id="SvgjsTspan1116" dy="18" x="59"><tspan id="SvgjsTspan1117" style="text-decoration:;">物理硬件</tspan></tspan></text></g></g><g id="SvgjsG1118" transform="translate(32.33445488465384,162.49702380952402)"><path id="SvgjsPath1119" d="M 0 4Q 0 0 4 0L 113.60825344867953 0Q 117.60825344867953 0 117.60825344867953 4L 117.60825344867953 48.99404761904759Q 117.60825344867953 52.99404761904759 113.60825344867953 52.99404761904759L 4 52.99404761904759Q 0 52.99404761904759 0 48.99404761904759Z" stroke="rgba(255,255,255,1)" stroke-width="2" fill-opacity="1" fill="#ffffff"></path><g id="SvgjsG1120"><text id="SvgjsText1121" font-family="微软雅黑" text-anchor="middle" font-size="15px" width="98px" fill="#323232" font-weight="400" align="middle" lineHeight="125%" anchor="middle" family="微软雅黑" size="15px" weight="400" font-style="" opacity="1" y="15.622023809523796" transform="rotate(0)"><tspan id="SvgjsTspan1122" dy="18" x="59"><tspan id="SvgjsTspan1123" style="text-decoration:;">内核空间</tspan></tspan></text></g></g><g id="SvgjsG1124"><path id="SvgjsPath1125" d="M281.94270833333337 168L281.94270833333337 116.66666666666663L281.94270833333337 116.66666666666663L281.94270833333337 67.93333333333334" stroke="#323232" stroke-width="2" fill="none" marker-end="url(#SvgjsMarker1126)"></path><rect id="SvgjsRect1128" width="62" height="16" x="250.609375" y="126" fill="#ffffff"></rect><text id="SvgjsText1129" font-family="微软雅黑" text-anchor="middle" font-size="13px" width="62px" fill="#323232" font-weight="400" align="top" lineHeight="16px" anchor="middle" family="微软雅黑" size="13px" weight="400" font-style="" opacity="1" y="124.375" transform="rotate(0)"><tspan id="SvgjsTspan1130" dy="16" x="281.609375"><tspan id="SvgjsTspan1131" style="text-decoration:;">CPU Copy</tspan></tspan></text></g><g id="SvgjsG1132"><path id="SvgjsPath1133" d="M280.60937500000045 318L280.60937500000045 263.66666666666663L280.60937500000045 263.66666666666663L280.60937500000045 211.93333333333334" stroke="#323232" stroke-width="2" fill="none" marker-end="url(#SvgjsMarker1134)"></path><rect id="SvgjsRect1136" width="68" height="16" x="246.609375" y="239" fill="#ffffff"></rect><text id="SvgjsText1137" font-family="微软雅黑" text-anchor="middle" font-size="13px" width="68px" fill="#323232" font-weight="400" align="top" lineHeight="16px" anchor="middle" family="微软雅黑" size="13px" weight="400" font-style="" opacity="1" y="237.375" transform="rotate(0)"><tspan id="SvgjsTspan1138" dy="16" x="280.609375"><tspan id="SvgjsTspan1139" style="text-decoration:;">MDA Copy</tspan></tspan></text></g><g id="SvgjsG1140"><path id="SvgjsPath1141" d="M503.2760416666679 315.4L503.2760416666679 263.66666666666686L503.2760416666679 263.66666666666686L503.2760416666679 209.3333333333337" stroke="#323232" stroke-width="2" fill="none" marker-start="url(#SvgjsMarker1142)"></path><rect id="SvgjsRect1144" width="68" height="16" x="468.609375" y="241" fill="#ffffff"></rect><text id="SvgjsText1145" font-family="微软雅黑" text-anchor="middle" font-size="13px" width="68px" fill="#323232" font-weight="400" align="top" lineHeight="16px" anchor="middle" family="微软雅黑" size="13px" weight="400" font-style="" opacity="1" y="239.375" transform="rotate(0)"><tspan id="SvgjsTspan1146" dy="16" x="502.609375"><tspan id="SvgjsTspan1147" style="text-decoration:;">MDA Copy</tspan></tspan></text></g><g id="SvgjsG1148"><path id="SvgjsPath1149" d="M503.94270833333417 165.39999999999998L503.94270833333417 116.66666666666686L503.94270833333417 116.66666666666686L503.94270833333417 65.33333333333366" stroke="#323232" stroke-width="2" fill="none" marker-start="url(#SvgjsMarker1150)"></path><rect id="SvgjsRect1152" width="62" height="16" x="472.609375" y="126" fill="#ffffff"></rect><text id="SvgjsText1153" font-family="微软雅黑" text-anchor="middle" font-size="13px" width="62px" fill="#323232" font-weight="400" align="top" lineHeight="16px" anchor="middle" family="微软雅黑" size="13px" weight="400" font-style="" opacity="1" y="124.375" transform="rotate(0)"><tspan id="SvgjsTspan1154" dy="16" x="503.609375"><tspan id="SvgjsTspan1155" style="text-decoration:;">CPU Copy</tspan></tspan></text></g><g id="SvgjsG1156" transform="translate(211.87068676871206,72.38318452380952)"><path id="SvgjsPath1157" d="M 0 4Q 0 0 4 0L 59.21650689735907 0Q 63.21650689735907 0 63.21650689735907 4L 63.21650689735907 31.309523809523846Q 63.21650689735907 35.309523809523846 59.21650689735907 35.309523809523846L 4 35.309523809523846Q 0 35.309523809523846 0 31.309523809523846Z" stroke="rgba(255,255,255,1)" stroke-width="2" fill-opacity="1" fill="#ffffff"></path><g id="SvgjsG1158"><text id="SvgjsText1159" font-family="微软雅黑" text-anchor="middle" font-size="15px" width="44px" fill="#323232" font-weight="400" align="middle" lineHeight="125%" anchor="middle" family="微软雅黑" size="15px" weight="400" font-style="" opacity="1" y="6.779761904761923" transform="rotate(0)"><tspan id="SvgjsTspan1160" dy="18" x="32"><tspan id="SvgjsTspan1161" style="text-decoration:;">read</tspan></tspan></text></g></g><g id="SvgjsG1162" transform="translate(435.34894763827685,72.38318452381003)"><path id="SvgjsPath1163" d="M 0 4Q 0 0 4 0L 59.21650689735907 0Q 63.21650689735907 0 63.21650689735907 4L 63.21650689735907 31.309523809523846Q 63.21650689735907 35.309523809523846 59.21650689735907 35.309523809523846L 4 35.309523809523846Q 0 35.309523809523846 0 31.309523809523846Z" stroke="rgba(255,255,255,1)" stroke-width="2" fill-opacity="1" fill="#ffffff"></path><g id="SvgjsG1164"><text id="SvgjsText1165" font-family="微软雅黑" text-anchor="middle" font-size="15px" width="44px" fill="#323232" font-weight="400" align="middle" lineHeight="125%" anchor="middle" family="微软雅黑" size="15px" weight="400" font-style="" opacity="1" y="6.779761904761923" transform="rotate(0)"><tspan id="SvgjsTspan1166" dy="18" x="32"><tspan id="SvgjsTspan1167" style="text-decoration:;">write</tspan></tspan></text></g></g></svg>